<?xml version="1.0" standalone="no"?><!DOCTYPE svg PUBLIC "-//W3C//DTD SVG 1.1//EN" "http://www.w3.org/Graphics/SVG/1.1/DTD/svg11.dtd"><svg t="1611903513355" class="icon" viewBox="0 0 1024 1024" version="1.1" xmlns="http://www.w3.org/2000/svg" p-id="2100" xmlns:xlink="http://www.w3.org/1999/xlink" width="32" height="32"><defs><style type="text/css"></style></defs><path d="M512 512m-512 0a512 512 0 1 0 1024 0 512 512 0 1 0-1024 0Z" fill="#5193ED" p-id="2101"></path><path d="M512 481.655467A121.378133 121.378133 0 1 1 512 238.933333a121.378133 121.378133 0 0 1 0 242.722134z m-32.938667 30.344533h65.877334a232.004267 232.004267 0 0 1 211.8656 136.533333l22.971733 51.2a60.484267 60.484267 0 0 1-31.061333 80.110934c-7.850667 3.413333-16.315733 5.2224-24.8832 5.2224H300.1344C266.3424 785.066667 238.933333 757.896533 238.933333 724.3776c0-8.4992 1.809067-16.861867 5.290667-24.644267l22.9376-51.2a232.004267 232.004267 0 0 1 211.899733-136.533333z" fill="#F9F9F9" p-id="2102"></path></svg>